<?xml version="1.0" encoding="utf-8" standalone="no"?>
<!DOCTYPE svg PUBLIC "-//W3C//DTD SVG 1.1//EN"
  "http://www.w3.org/Graphics/SVG/1.1/DTD/svg11.dtd">
<svg xmlns:xlink="http://www.w3.org/1999/xlink" width="460.8pt" height="345.6pt" viewBox="0 0 460.8 345.6" xmlns="http://www.w3.org/2000/svg" version="1.1">
 <metadata>
  <rdf:RDF xmlns:dc="http://purl.org/dc/elements/1.1/" xmlns:cc="http://creativecommons.org/ns#" xmlns:rdf="http://www.w3.org/1999/02/22-rdf-syntax-ns#">
   <cc:Work>
    <dc:type rdf:resource="http://purl.org/dc/dcmitype/StillImage"/>
    <dc:date>2022-01-01T11:58:23.069085</dc:date>
    <dc:format>image/svg+xml</dc:format>
    <dc:creator>
     <cc:Agent>
      <dc:title>Matplotlib v3.5.1, https://matplotlib.org/</dc:title>
     </cc:Agent>
    </dc:creator>
   </cc:Work>
  </rdf:RDF>
 </metadata>
 <defs>
  <style type="text/css">*{stroke-linejoin: round; stroke-linecap: butt}</style>
 </defs>
 <g id="figure_1">
  <g id="patch_1">
   <path d="M 0 345.6 
L 460.8 345.6 
L 460.8 0 
L 0 0 
z
" style="fill: #ffffff"/>
  </g>
  <g id="axes_1">
   <g id="patch_2">
    <path d="M 39.94 273.069935 
L 450 273.069935 
L 450 26.88 
L 39.94 26.88 
z
" style="fill: #ffffff"/>
   </g>
   <g id="patch_3">
    <path d="M 54.585 273.069935 
L 61.9075 273.069935 
L 61.9075 261.346605 
L 54.585 261.346605 
z
" clip-path="url(#p7f0277e58a)" style="fill: #1f77b4"/>
   </g>
   <g id="patch_4">
    <path d="M 113.165 273.069935 
L 120.4875 273.069935 
L 120.4875 236.489883 
L 113.165 236.489883 
z
" clip-path="url(#p7f0277e58a)" style="fill: #1f77b4"/>
   </g>
   <g id="patch_5">
    <path d="M 171.745 273.069935 
L 179.0675 273.069935 
L 179.0675 226.575463 
L 171.745 226.575463 
z
" clip-path="url(#p7f0277e58a)" style="fill: #1f77b4"/>
   </g>
   <g id="patch_6">
    <path d="M 230.325 273.069935 
L 237.6475 273.069935 
L 237.6475 188.318364 
L 230.325 188.318364 
z
" clip-path="url(#p7f0277e58a)" style="fill: #1f77b4"/>
   </g>
   <g id="patch_7">
    <path d="M 288.905 273.069935 
L 296.2275 273.069935 
L 296.2275 102.025644 
L 288.905 102.025644 
z
" clip-path="url(#p7f0277e58a)" style="fill: #1f77b4"/>
   </g>
   <g id="patch_8">
    <path d="M 347.485 273.069935 
L 354.8075 273.069935 
L 354.8075 38.60333 
L 347.485 38.60333 
z
" clip-path="url(#p7f0277e58a)" style="fill: #1f77b4"/>
   </g>
   <g id="patch_9">
    <path d="M 406.065 273.069935 
L 413.3875 273.069935 
L 413.3875 90.223956 
L 406.065 90.223956 
z
" clip-path="url(#p7f0277e58a)" style="fill: #1f77b4"/>
   </g>
   <g id="patch_10">
    <path d="M 61.9075 273.069935 
L 69.23 273.069935 
L 69.23 261.346605 
L 61.9075 261.346605 
z
" clip-path="url(#p7f0277e58a)" style="fill: #ff7f0e"/>
   </g>
   <g id="patch_11">
    <path d="M 120.4875 273.069935 
L 127.81 273.069935 
L 127.81 250.375681 
L 120.4875 250.375681 
z
" clip-path="url(#p7f0277e58a)" style="fill: #ff7f0e"/>
   </g>
   <g id="patch_12">
    <path d="M 179.0675 273.069935 
L 186.39 273.069935 
L 186.39 248.541452 
L 179.0675 248.541452 
z
" clip-path="url(#p7f0277e58a)" style="fill: #ff7f0e"/>
   </g>
   <g id="patch_13">
    <path d="M 237.6475 273.069935 
L 244.97 273.069935 
L 244.97 199.864509 
L 237.6475 199.864509 
z
" clip-path="url(#p7f0277e58a)" style="fill: #ff7f0e"/>
   </g>
   <g id="patch_14">
    <path d="M 296.2275 273.069935 
L 303.55 273.069935 
L 303.55 157.635665 
L 296.2275 157.635665 
z
" clip-path="url(#p7f0277e58a)" style="fill: #ff7f0e"/>
   </g>
   <g id="patch_15">
    <path d="M 354.8075 273.069935 
L 362.13 273.069935 
L 362.13 38.60333 
L 354.8075 38.60333 
z
" clip-path="url(#p7f0277e58a)" style="fill: #ff7f0e"/>
   </g>
   <g id="patch_16">
    <path d="M 413.3875 273.069935 
L 420.71 273.069935 
L 420.71 172.831051 
L 413.3875 172.831051 
z
" clip-path="url(#p7f0277e58a)" style="fill: #ff7f0e"/>
   </g>
   <g id="patch_17">
    <path d="M 69.23 273.069935 
L 76.5525 273.069935 
L 76.5525 261.346605 
L 69.23 261.346605 
z
" clip-path="url(#p7f0277e58a)" style="fill: #2ca02c"/>
   </g>
   <g id="patch_18">
    <path d="M 127.81 273.069935 
L 135.1325 273.069935 
L 135.1325 236.626288 
L 127.81 236.626288 
z
" clip-path="url(#p7f0277e58a)" style="fill: #2ca02c"/>
   </g>
   <g id="patch_19">
    <path d="M 186.39 273.069935 
L 193.7125 273.069935 
L 193.7125 202.823935 
L 186.39 202.823935 
z
" clip-path="url(#p7f0277e58a)" style="fill: #2ca02c"/>
   </g>
   <g id="patch_20">
    <path d="M 244.97 273.069935 
L 252.2925 273.069935 
L 252.2925 133.145925 
L 244.97 133.145925 
z
" clip-path="url(#p7f0277e58a)" style="fill: #2ca02c"/>
   </g>
   <g id="patch_21">
    <path d="M 303.55 273.069935 
L 310.8725 273.069935 
L 310.8725 38.60333 
L 303.55 38.60333 
z
" clip-path="url(#p7f0277e58a)" style="fill: #2ca02c"/>
   </g>
   <g id="patch_22">
    <path d="M 362.13 273.069935 
L 369.4525 273.069935 
L 369.4525 38.60333 
L 362.13 38.60333 
z
" clip-path="url(#p7f0277e58a)" style="fill: #2ca02c"/>
   </g>
   <g id="patch_23">
    <path d="M 420.71 273.069935 
L 428.0325 273.069935 
L 428.0325 38.60333 
L 420.71 38.60333 
z
" clip-path="url(#p7f0277e58a)" style="fill: #2ca02c"/>
   </g>
   <g id="patch_24">
    <path d="M 76.5525 273.069935 
L 83.875 273.069935 
L 83.875 261.346605 
L 76.5525 261.346605 
z
" clip-path="url(#p7f0277e58a)" style="fill: #d62728"/>
   </g>
   <g id="patch_25">
    <path d="M 135.1325 273.069935 
L 142.455 273.069935 
L 142.455 249.355071 
L 135.1325 249.355071 
z
" clip-path="url(#p7f0277e58a)" style="fill: #d62728"/>
   </g>
   <g id="patch_26">
    <path d="M 193.7125 273.069935 
L 201.035 273.069935 
L 201.035 252.225666 
L 193.7125 252.225666 
z
" clip-path="url(#p7f0277e58a)" style="fill: #d62728"/>
   </g>
   <g id="patch_27">
    <path d="M 252.2925 273.069935 
L 259.615 273.069935 
L 259.615 217.278758 
L 252.2925 217.278758 
z
" clip-path="url(#p7f0277e58a)" style="fill: #d62728"/>
   </g>
   <g id="patch_28">
    <path d="M 310.8725 273.069935 
L 318.195 273.069935 
L 318.195 79.970253 
L 310.8725 79.970253 
z
" clip-path="url(#p7f0277e58a)" style="fill: #d62728"/>
   </g>
   <g id="patch_29">
    <path d="M 369.4525 273.069935 
L 376.775 273.069935 
L 376.775 75.103812 
L 369.4525 75.103812 
z
" clip-path="url(#p7f0277e58a)" style="fill: #d62728"/>
   </g>
   <g id="patch_30">
    <path d="M 428.0325 273.069935 
L 435.355 273.069935 
L 435.355 38.60333 
L 428.0325 38.60333 
z
" clip-path="url(#p7f0277e58a)" style="fill: #d62728"/>
   </g>
   <g id="matplotlib.axis_1">
    <g id="xtick_1">
     <g id="line2d_1">
      <defs>
       <path id="mbff764658e" d="M 0 0 
L 0 3.5 
" style="stroke: #000000; stroke-width: 0.8"/>
      </defs>
      <g>
       <use xlink:href="#mbff764658e" x="69.23" y="273.069935" style="stroke: #000000; stroke-width: 0.8"/>
      </g>
     </g>
     <g id="text_1">
      <!-- apischema -->
      <g transform="translate(51.97549 323.854208)rotate(-45)scale(0.1 -0.1)">
       <defs>
        <path id="DejaVuSans-61" d="M 2194 1759 
Q 1497 1759 1228 1600 
Q 959 1441 959 1056 
Q 959 750 1161 570 
Q 1363 391 1709 391 
Q 2188 391 2477 730 
Q 2766 1069 2766 1631 
L 2766 1759 
L 2194 1759 
z
M 3341 1997 
L 3341 0 
L 2766 0 
L 2766 531 
Q 2569 213 2275 61 
Q 1981 -91 1556 -91 
Q 1019 -91 701 211 
Q 384 513 384 1019 
Q 384 1609 779 1909 
Q 1175 2209 1959 2209 
L 2766 2209 
L 2766 2266 
Q 2766 2663 2505 2880 
Q 2244 3097 1772 3097 
Q 1472 3097 1187 3025 
Q 903 2953 641 2809 
L 641 3341 
Q 956 3463 1253 3523 
Q 1550 3584 1831 3584 
Q 2591 3584 2966 3190 
Q 3341 2797 3341 1997 
z
" transform="scale(0.015625)"/>
        <path id="DejaVuSans-70" d="M 1159 525 
L 1159 -1331 
L 581 -1331 
L 581 3500 
L 1159 3500 
L 1159 2969 
Q 1341 3281 1617 3432 
Q 1894 3584 2278 3584 
Q 2916 3584 3314 3078 
Q 3713 2572 3713 1747 
Q 3713 922 3314 415 
Q 2916 -91 2278 -91 
Q 1894 -91 1617 61 
Q 1341 213 1159 525 
z
M 3116 1747 
Q 3116 2381 2855 2742 
Q 2594 3103 2138 3103 
Q 1681 3103 1420 2742 
Q 1159 2381 1159 1747 
Q 1159 1113 1420 752 
Q 1681 391 2138 391 
Q 2594 391 2855 752 
Q 3116 1113 3116 1747 
z
" transform="scale(0.015625)"/>
        <path id="DejaVuSans-69" d="M 603 3500 
L 1178 3500 
L 1178 0 
L 603 0 
L 603 3500 
z
M 603 4863 
L 1178 4863 
L 1178 4134 
L 603 4134 
L 603 4863 
z
" transform="scale(0.015625)"/>
        <path id="DejaVuSans-73" d="M 2834 3397 
L 2834 2853 
Q 2591 2978 2328 3040 
Q 2066 3103 1784 3103 
Q 1356 3103 1142 2972 
Q 928 2841 928 2578 
Q 928 2378 1081 2264 
Q 1234 2150 1697 2047 
L 1894 2003 
Q 2506 1872 2764 1633 
Q 3022 1394 3022 966 
Q 3022 478 2636 193 
Q 2250 -91 1575 -91 
Q 1294 -91 989 -36 
Q 684 19 347 128 
L 347 722 
Q 666 556 975 473 
Q 1284 391 1588 391 
Q 1994 391 2212 530 
Q 2431 669 2431 922 
Q 2431 1156 2273 1281 
Q 2116 1406 1581 1522 
L 1381 1569 
Q 847 1681 609 1914 
Q 372 2147 372 2553 
Q 372 3047 722 3315 
Q 1072 3584 1716 3584 
Q 2034 3584 2315 3537 
Q 2597 3491 2834 3397 
z
" transform="scale(0.015625)"/>
        <path id="DejaVuSans-63" d="M 3122 3366 
L 3122 2828 
Q 2878 2963 2633 3030 
Q 2388 3097 2138 3097 
Q 1578 3097 1268 2742 
Q 959 2388 959 1747 
Q 959 1106 1268 751 
Q 1578 397 2138 397 
Q 2388 397 2633 464 
Q 2878 531 3122 666 
L 3122 134 
Q 2881 22 2623 -34 
Q 2366 -91 2075 -91 
Q 1284 -91 818 406 
Q 353 903 353 1747 
Q 353 2603 823 3093 
Q 1294 3584 2113 3584 
Q 2378 3584 2631 3529 
Q 2884 3475 3122 3366 
z
" transform="scale(0.015625)"/>
        <path id="DejaVuSans-68" d="M 3513 2113 
L 3513 0 
L 2938 0 
L 2938 2094 
Q 2938 2591 2744 2837 
Q 2550 3084 2163 3084 
Q 1697 3084 1428 2787 
Q 1159 2491 1159 1978 
L 1159 0 
L 581 0 
L 581 4863 
L 1159 4863 
L 1159 2956 
Q 1366 3272 1645 3428 
Q 1925 3584 2291 3584 
Q 2894 3584 3203 3211 
Q 3513 2838 3513 2113 
z
" transform="scale(0.015625)"/>
        <path id="DejaVuSans-65" d="M 3597 1894 
L 3597 1613 
L 953 1613 
Q 991 1019 1311 708 
Q 1631 397 2203 397 
Q 2534 397 2845 478 
Q 3156 559 3463 722 
L 3463 178 
Q 3153 47 2828 -22 
Q 2503 -91 2169 -91 
Q 1331 -91 842 396 
Q 353 884 353 1716 
Q 353 2575 817 3079 
Q 1281 3584 2069 3584 
Q 2775 3584 3186 3129 
Q 3597 2675 3597 1894 
z
M 3022 2063 
Q 3016 2534 2758 2815 
Q 2500 3097 2075 3097 
Q 1594 3097 1305 2825 
Q 1016 2553 972 2059 
L 3022 2063 
z
" transform="scale(0.015625)"/>
        <path id="DejaVuSans-6d" d="M 3328 2828 
Q 3544 3216 3844 3400 
Q 4144 3584 4550 3584 
Q 5097 3584 5394 3201 
Q 5691 2819 5691 2113 
L 5691 0 
L 5113 0 
L 5113 2094 
Q 5113 2597 4934 2840 
Q 4756 3084 4391 3084 
Q 3944 3084 3684 2787 
Q 3425 2491 3425 1978 
L 3425 0 
L 2847 0 
L 2847 2094 
Q 2847 2600 2669 2842 
Q 2491 3084 2119 3084 
Q 1678 3084 1418 2786 
Q 1159 2488 1159 1978 
L 1159 0 
L 581 0 
L 581 3500 
L 1159 3500 
L 1159 2956 
Q 1356 3278 1631 3431 
Q 1906 3584 2284 3584 
Q 2666 3584 2933 3390 
Q 3200 3197 3328 2828 
z
" transform="scale(0.015625)"/>
       </defs>
       <use xlink:href="#DejaVuSans-61"/>
       <use xlink:href="#DejaVuSans-70" x="61.279297"/>
       <use xlink:href="#DejaVuSans-69" x="124.755859"/>
       <use xlink:href="#DejaVuSans-73" x="152.539062"/>
       <use xlink:href="#DejaVuSans-63" x="204.638672"/>
       <use xlink:href="#DejaVuSans-68" x="259.619141"/>
       <use xlink:href="#DejaVuSans-65" x="322.998047"/>
       <use xlink:href="#DejaVuSans-6d" x="384.521484"/>
       <use xlink:href="#DejaVuSans-61" x="481.933594"/>
      </g>
     </g>
    </g>
    <g id="xtick_2">
     <g id="line2d_2">
      <g>
       <use xlink:href="#mbff764658e" x="127.81" y="273.069935" style="stroke: #000000; stroke-width: 0.8"/>
      </g>
     </g>
     <g id="text_2">
      <!-- mashumaro -->
      <g transform="translate(108.679999 327.605189)rotate(-45)scale(0.1 -0.1)">
       <defs>
        <path id="DejaVuSans-75" d="M 544 1381 
L 544 3500 
L 1119 3500 
L 1119 1403 
Q 1119 906 1312 657 
Q 1506 409 1894 409 
Q 2359 409 2629 706 
Q 2900 1003 2900 1516 
L 2900 3500 
L 3475 3500 
L 3475 0 
L 2900 0 
L 2900 538 
Q 2691 219 2414 64 
Q 2138 -91 1772 -91 
Q 1169 -91 856 284 
Q 544 659 544 1381 
z
M 1991 3584 
L 1991 3584 
z
" transform="scale(0.015625)"/>
        <path id="DejaVuSans-72" d="M 2631 2963 
Q 2534 3019 2420 3045 
Q 2306 3072 2169 3072 
Q 1681 3072 1420 2755 
Q 1159 2438 1159 1844 
L 1159 0 
L 581 0 
L 581 3500 
L 1159 3500 
L 1159 2956 
Q 1341 3275 1631 3429 
Q 1922 3584 2338 3584 
Q 2397 3584 2469 3576 
Q 2541 3569 2628 3553 
L 2631 2963 
z
" transform="scale(0.015625)"/>
        <path id="DejaVuSans-6f" d="M 1959 3097 
Q 1497 3097 1228 2736 
Q 959 2375 959 1747 
Q 959 1119 1226 758 
Q 1494 397 1959 397 
Q 2419 397 2687 759 
Q 2956 1122 2956 1747 
Q 2956 2369 2687 2733 
Q 2419 3097 1959 3097 
z
M 1959 3584 
Q 2709 3584 3137 3096 
Q 3566 2609 3566 1747 
Q 3566 888 3137 398 
Q 2709 -91 1959 -91 
Q 1206 -91 779 398 
Q 353 888 353 1747 
Q 353 2609 779 3096 
Q 1206 3584 1959 3584 
z
" transform="scale(0.015625)"/>
       </defs>
       <use xlink:href="#DejaVuSans-6d"/>
       <use xlink:href="#DejaVuSans-61" x="97.412109"/>
       <use xlink:href="#DejaVuSans-73" x="158.691406"/>
       <use xlink:href="#DejaVuSans-68" x="210.791016"/>
       <use xlink:href="#DejaVuSans-75" x="274.169922"/>
       <use xlink:href="#DejaVuSans-6d" x="337.548828"/>
       <use xlink:href="#DejaVuSans-61" x="434.960938"/>
       <use xlink:href="#DejaVuSans-72" x="496.240234"/>
       <use xlink:href="#DejaVuSans-6f" x="535.103516"/>
      </g>
     </g>
    </g>
    <g id="xtick_3">
     <g id="line2d_3">
      <g>
       <use xlink:href="#mbff764658e" x="186.39" y="273.069935" style="stroke: #000000; stroke-width: 0.8"/>
      </g>
     </g>
     <g id="text_3">
      <!-- cattrs -->
      <g transform="translate(178.163255 305.798678)rotate(-45)scale(0.1 -0.1)">
       <defs>
        <path id="DejaVuSans-74" d="M 1172 4494 
L 1172 3500 
L 2356 3500 
L 2356 3053 
L 1172 3053 
L 1172 1153 
Q 1172 725 1289 603 
Q 1406 481 1766 481 
L 2356 481 
L 2356 0 
L 1766 0 
Q 1100 0 847 248 
Q 594 497 594 1153 
L 594 3053 
L 172 3053 
L 172 3500 
L 594 3500 
L 594 4494 
L 1172 4494 
z
" transform="scale(0.015625)"/>
       </defs>
       <use xlink:href="#DejaVuSans-63"/>
       <use xlink:href="#DejaVuSans-61" x="54.980469"/>
       <use xlink:href="#DejaVuSans-74" x="116.259766"/>
       <use xlink:href="#DejaVuSans-74" x="155.46875"/>
       <use xlink:href="#DejaVuSans-72" x="194.677734"/>
       <use xlink:href="#DejaVuSans-73" x="235.791016"/>
      </g>
     </g>
    </g>
    <g id="xtick_4">
     <g id="line2d_4">
      <g>
       <use xlink:href="#mbff764658e" x="244.97" y="273.069935" style="stroke: #000000; stroke-width: 0.8"/>
      </g>
     </g>
     <g id="text_4">
      <!-- typical -->
      <g transform="translate(235.122986 309.039216)rotate(-45)scale(0.1 -0.1)">
       <defs>
        <path id="DejaVuSans-79" d="M 2059 -325 
Q 1816 -950 1584 -1140 
Q 1353 -1331 966 -1331 
L 506 -1331 
L 506 -850 
L 844 -850 
Q 1081 -850 1212 -737 
Q 1344 -625 1503 -206 
L 1606 56 
L 191 3500 
L 800 3500 
L 1894 763 
L 2988 3500 
L 3597 3500 
L 2059 -325 
z
" transform="scale(0.015625)"/>
        <path id="DejaVuSans-6c" d="M 603 4863 
L 1178 4863 
L 1178 0 
L 603 0 
L 603 4863 
z
" transform="scale(0.015625)"/>
       </defs>
       <use xlink:href="#DejaVuSans-74"/>
       <use xlink:href="#DejaVuSans-79" x="39.208984"/>
       <use xlink:href="#DejaVuSans-70" x="98.388672"/>
       <use xlink:href="#DejaVuSans-69" x="161.865234"/>
       <use xlink:href="#DejaVuSans-63" x="189.648438"/>
       <use xlink:href="#DejaVuSans-61" x="244.628906"/>
       <use xlink:href="#DejaVuSans-6c" x="305.908203"/>
      </g>
     </g>
    </g>
    <g id="xtick_5">
     <g id="line2d_5">
      <g>
       <use xlink:href="#mbff764658e" x="303.55" y="273.069935" style="stroke: #000000; stroke-width: 0.8"/>
      </g>
     </g>
     <g id="text_5">
      <!-- pydantic -->
      <g transform="translate(290.200045 316.045097)rotate(-45)scale(0.1 -0.1)">
       <defs>
        <path id="DejaVuSans-64" d="M 2906 2969 
L 2906 4863 
L 3481 4863 
L 3481 0 
L 2906 0 
L 2906 525 
Q 2725 213 2448 61 
Q 2172 -91 1784 -91 
Q 1150 -91 751 415 
Q 353 922 353 1747 
Q 353 2572 751 3078 
Q 1150 3584 1784 3584 
Q 2172 3584 2448 3432 
Q 2725 3281 2906 2969 
z
M 947 1747 
Q 947 1113 1208 752 
Q 1469 391 1925 391 
Q 2381 391 2643 752 
Q 2906 1113 2906 1747 
Q 2906 2381 2643 2742 
Q 2381 3103 1925 3103 
Q 1469 3103 1208 2742 
Q 947 2381 947 1747 
z
" transform="scale(0.015625)"/>
        <path id="DejaVuSans-6e" d="M 3513 2113 
L 3513 0 
L 2938 0 
L 2938 2094 
Q 2938 2591 2744 2837 
Q 2550 3084 2163 3084 
Q 1697 3084 1428 2787 
Q 1159 2491 1159 1978 
L 1159 0 
L 581 0 
L 581 3500 
L 1159 3500 
L 1159 2956 
Q 1366 3272 1645 3428 
Q 1925 3584 2291 3584 
Q 2894 3584 3203 3211 
Q 3513 2838 3513 2113 
z
" transform="scale(0.015625)"/>
       </defs>
       <use xlink:href="#DejaVuSans-70"/>
       <use xlink:href="#DejaVuSans-79" x="63.476562"/>
       <use xlink:href="#DejaVuSans-64" x="122.65625"/>
       <use xlink:href="#DejaVuSans-61" x="186.132812"/>
       <use xlink:href="#DejaVuSans-6e" x="247.412109"/>
       <use xlink:href="#DejaVuSans-74" x="310.791016"/>
       <use xlink:href="#DejaVuSans-69" x="350"/>
       <use xlink:href="#DejaVuSans-63" x="377.783203"/>
      </g>
     </g>
    </g>
    <g id="xtick_6">
     <g id="line2d_6">
      <g>
       <use xlink:href="#mbff764658e" x="362.13" y="273.069935" style="stroke: #000000; stroke-width: 0.8"/>
      </g>
     </g>
     <g id="text_6">
      <!-- marshmallow -->
      <g transform="translate(340.30526 332.994668)rotate(-45)scale(0.1 -0.1)">
       <defs>
        <path id="DejaVuSans-77" d="M 269 3500 
L 844 3500 
L 1563 769 
L 2278 3500 
L 2956 3500 
L 3675 769 
L 4391 3500 
L 4966 3500 
L 4050 0 
L 3372 0 
L 2619 2869 
L 1863 0 
L 1184 0 
L 269 3500 
z
" transform="scale(0.015625)"/>
       </defs>
       <use xlink:href="#DejaVuSans-6d"/>
       <use xlink:href="#DejaVuSans-61" x="97.412109"/>
       <use xlink:href="#DejaVuSans-72" x="158.691406"/>
       <use xlink:href="#DejaVuSans-73" x="199.804688"/>
       <use xlink:href="#DejaVuSans-68" x="251.904297"/>
       <use xlink:href="#DejaVuSans-6d" x="315.283203"/>
       <use xlink:href="#DejaVuSans-61" x="412.695312"/>
       <use xlink:href="#DejaVuSans-6c" x="473.974609"/>
       <use xlink:href="#DejaVuSans-6c" x="501.757812"/>
       <use xlink:href="#DejaVuSans-6f" x="529.541016"/>
       <use xlink:href="#DejaVuSans-77" x="590.722656"/>
      </g>
     </g>
    </g>
    <g id="xtick_7">
     <g id="line2d_7">
      <g>
       <use xlink:href="#mbff764658e" x="420.71" y="273.069935" style="stroke: #000000; stroke-width: 0.8"/>
      </g>
     </g>
     <g id="text_7">
      <!-- typedload -->
      <g transform="translate(404.961406 320.842375)rotate(-45)scale(0.1 -0.1)">
       <use xlink:href="#DejaVuSans-74"/>
       <use xlink:href="#DejaVuSans-79" x="39.208984"/>
       <use xlink:href="#DejaVuSans-70" x="98.388672"/>
       <use xlink:href="#DejaVuSans-65" x="161.865234"/>
       <use xlink:href="#DejaVuSans-64" x="223.388672"/>
       <use xlink:href="#DejaVuSans-6c" x="286.865234"/>
       <use xlink:href="#DejaVuSans-6f" x="314.648438"/>
       <use xlink:href="#DejaVuSans-61" x="375.830078"/>
       <use xlink:href="#DejaVuSans-64" x="437.109375"/>
      </g>
     </g>
    </g>
   </g>
   <g id="matplotlib.axis_2">
    <g id="ytick_1">
     <g id="line2d_8">
      <defs>
       <path id="m7a4a32d5d1" d="M 0 0 
L -3.5 0 
" style="stroke: #000000; stroke-width: 0.8"/>
      </defs>
      <g>
       <use xlink:href="#m7a4a32d5d1" x="39.94" y="273.069935" style="stroke: #000000; stroke-width: 0.8"/>
      </g>
     </g>
     <g id="text_8">
      <!-- 0.0 -->
      <g transform="translate(17.036875 276.869154)scale(0.1 -0.1)">
       <defs>
        <path id="DejaVuSans-30" d="M 2034 4250 
Q 1547 4250 1301 3770 
Q 1056 3291 1056 2328 
Q 1056 1369 1301 889 
Q 1547 409 2034 409 
Q 2525 409 2770 889 
Q 3016 1369 3016 2328 
Q 3016 3291 2770 3770 
Q 2525 4250 2034 4250 
z
M 2034 4750 
Q 2819 4750 3233 4129 
Q 3647 3509 3647 2328 
Q 3647 1150 3233 529 
Q 2819 -91 2034 -91 
Q 1250 -91 836 529 
Q 422 1150 422 2328 
Q 422 3509 836 4129 
Q 1250 4750 2034 4750 
z
" transform="scale(0.015625)"/>
        <path id="DejaVuSans-2e" d="M 684 794 
L 1344 794 
L 1344 0 
L 684 0 
L 684 794 
z
" transform="scale(0.015625)"/>
       </defs>
       <use xlink:href="#DejaVuSans-30"/>
       <use xlink:href="#DejaVuSans-2e" x="63.623047"/>
       <use xlink:href="#DejaVuSans-30" x="95.410156"/>
      </g>
     </g>
    </g>
    <g id="ytick_2">
     <g id="line2d_9">
      <g>
       <use xlink:href="#m7a4a32d5d1" x="39.94" y="243.76161" style="stroke: #000000; stroke-width: 0.8"/>
      </g>
     </g>
     <g id="text_9">
      <!-- 2.5 -->
      <g transform="translate(17.036875 247.560828)scale(0.1 -0.1)">
       <defs>
        <path id="DejaVuSans-32" d="M 1228 531 
L 3431 531 
L 3431 0 
L 469 0 
L 469 531 
Q 828 903 1448 1529 
Q 2069 2156 2228 2338 
Q 2531 2678 2651 2914 
Q 2772 3150 2772 3378 
Q 2772 3750 2511 3984 
Q 2250 4219 1831 4219 
Q 1534 4219 1204 4116 
Q 875 4013 500 3803 
L 500 4441 
Q 881 4594 1212 4672 
Q 1544 4750 1819 4750 
Q 2544 4750 2975 4387 
Q 3406 4025 3406 3419 
Q 3406 3131 3298 2873 
Q 3191 2616 2906 2266 
Q 2828 2175 2409 1742 
Q 1991 1309 1228 531 
z
" transform="scale(0.015625)"/>
        <path id="DejaVuSans-35" d="M 691 4666 
L 3169 4666 
L 3169 4134 
L 1269 4134 
L 1269 2991 
Q 1406 3038 1543 3061 
Q 1681 3084 1819 3084 
Q 2600 3084 3056 2656 
Q 3513 2228 3513 1497 
Q 3513 744 3044 326 
Q 2575 -91 1722 -91 
Q 1428 -91 1123 -41 
Q 819 9 494 109 
L 494 744 
Q 775 591 1075 516 
Q 1375 441 1709 441 
Q 2250 441 2565 725 
Q 2881 1009 2881 1497 
Q 2881 1984 2565 2268 
Q 2250 2553 1709 2553 
Q 1456 2553 1204 2497 
Q 953 2441 691 2322 
L 691 4666 
z
" transform="scale(0.015625)"/>
       </defs>
       <use xlink:href="#DejaVuSans-32"/>
       <use xlink:href="#DejaVuSans-2e" x="63.623047"/>
       <use xlink:href="#DejaVuSans-35" x="95.410156"/>
      </g>
     </g>
    </g>
    <g id="ytick_3">
     <g id="line2d_10">
      <g>
       <use xlink:href="#m7a4a32d5d1" x="39.94" y="214.453284" style="stroke: #000000; stroke-width: 0.8"/>
      </g>
     </g>
     <g id="text_10">
      <!-- 5.0 -->
      <g transform="translate(17.036875 218.252503)scale(0.1 -0.1)">
       <use xlink:href="#DejaVuSans-35"/>
       <use xlink:href="#DejaVuSans-2e" x="63.623047"/>
       <use xlink:href="#DejaVuSans-30" x="95.410156"/>
      </g>
     </g>
    </g>
    <g id="ytick_4">
     <g id="line2d_11">
      <g>
       <use xlink:href="#m7a4a32d5d1" x="39.94" y="185.144958" style="stroke: #000000; stroke-width: 0.8"/>
      </g>
     </g>
     <g id="text_11">
      <!-- 7.5 -->
      <g transform="translate(17.036875 188.944177)scale(0.1 -0.1)">
       <defs>
        <path id="DejaVuSans-37" d="M 525 4666 
L 3525 4666 
L 3525 4397 
L 1831 0 
L 1172 0 
L 2766 4134 
L 525 4134 
L 525 4666 
z
" transform="scale(0.015625)"/>
       </defs>
       <use xlink:href="#DejaVuSans-37"/>
       <use xlink:href="#DejaVuSans-2e" x="63.623047"/>
       <use xlink:href="#DejaVuSans-35" x="95.410156"/>
      </g>
     </g>
    </g>
    <g id="ytick_5">
     <g id="line2d_12">
      <g>
       <use xlink:href="#m7a4a32d5d1" x="39.94" y="155.836633" style="stroke: #000000; stroke-width: 0.8"/>
      </g>
     </g>
     <g id="text_12">
      <!-- 10.0 -->
      <g transform="translate(10.674375 159.635851)scale(0.1 -0.1)">
       <defs>
        <path id="DejaVuSans-31" d="M 794 531 
L 1825 531 
L 1825 4091 
L 703 3866 
L 703 4441 
L 1819 4666 
L 2450 4666 
L 2450 531 
L 3481 531 
L 3481 0 
L 794 0 
L 794 531 
z
" transform="scale(0.015625)"/>
       </defs>
       <use xlink:href="#DejaVuSans-31"/>
       <use xlink:href="#DejaVuSans-30" x="63.623047"/>
       <use xlink:href="#DejaVuSans-2e" x="127.246094"/>
       <use xlink:href="#DejaVuSans-30" x="159.033203"/>
      </g>
     </g>
    </g>
    <g id="ytick_6">
     <g id="line2d_13">
      <g>
       <use xlink:href="#m7a4a32d5d1" x="39.94" y="126.528307" style="stroke: #000000; stroke-width: 0.8"/>
      </g>
     </g>
     <g id="text_13">
      <!-- 12.5 -->
      <g transform="translate(10.674375 130.327526)scale(0.1 -0.1)">
       <use xlink:href="#DejaVuSans-31"/>
       <use xlink:href="#DejaVuSans-32" x="63.623047"/>
       <use xlink:href="#DejaVuSans-2e" x="127.246094"/>
       <use xlink:href="#DejaVuSans-35" x="159.033203"/>
      </g>
     </g>
    </g>
    <g id="ytick_7">
     <g id="line2d_14">
      <g>
       <use xlink:href="#m7a4a32d5d1" x="39.94" y="97.219981" style="stroke: #000000; stroke-width: 0.8"/>
      </g>
     </g>
     <g id="text_14">
      <!-- 15.0 -->
      <g transform="translate(10.674375 101.0192)scale(0.1 -0.1)">
       <use xlink:href="#DejaVuSans-31"/>
       <use xlink:href="#DejaVuSans-35" x="63.623047"/>
       <use xlink:href="#DejaVuSans-2e" x="127.246094"/>
       <use xlink:href="#DejaVuSans-30" x="159.033203"/>
      </g>
     </g>
    </g>
    <g id="ytick_8">
     <g id="line2d_15">
      <g>
       <use xlink:href="#m7a4a32d5d1" x="39.94" y="67.911656" style="stroke: #000000; stroke-width: 0.8"/>
      </g>
     </g>
     <g id="text_15">
      <!-- 17.5 -->
      <g transform="translate(10.674375 71.710875)scale(0.1 -0.1)">
       <use xlink:href="#DejaVuSans-31"/>
       <use xlink:href="#DejaVuSans-37" x="63.623047"/>
       <use xlink:href="#DejaVuSans-2e" x="127.246094"/>
       <use xlink:href="#DejaVuSans-35" x="159.033203"/>
      </g>
     </g>
    </g>
    <g id="ytick_9">
     <g id="line2d_16">
      <g>
       <use xlink:href="#m7a4a32d5d1" x="39.94" y="38.60333" style="stroke: #000000; stroke-width: 0.8"/>
      </g>
     </g>
     <g id="text_16">
      <!-- 20.0 -->
      <g transform="translate(10.674375 42.402549)scale(0.1 -0.1)">
       <use xlink:href="#DejaVuSans-32"/>
       <use xlink:href="#DejaVuSans-30" x="63.623047"/>
       <use xlink:href="#DejaVuSans-2e" x="127.246094"/>
       <use xlink:href="#DejaVuSans-30" x="159.033203"/>
      </g>
     </g>
    </g>
   </g>
   <g id="patch_31">
    <path d="M 39.94 273.069935 
L 39.94 26.88 
" style="fill: none; stroke: #000000; stroke-width: 0.8; stroke-linejoin: miter; stroke-linecap: square"/>
   </g>
   <g id="patch_32">
    <path d="M 450 273.069935 
L 450 26.88 
" style="fill: none; stroke: #000000; stroke-width: 0.8; stroke-linejoin: miter; stroke-linecap: square"/>
   </g>
   <g id="patch_33">
    <path d="M 39.94 273.069935 
L 450 273.069935 
" style="fill: none; stroke: #000000; stroke-width: 0.8; stroke-linejoin: miter; stroke-linecap: square"/>
   </g>
   <g id="patch_34">
    <path d="M 39.94 26.88 
L 450 26.88 
" style="fill: none; stroke: #000000; stroke-width: 0.8; stroke-linejoin: miter; stroke-linecap: square"/>
   </g>
   <g id="text_17">
    <!-- ·· -->
    <g transform="translate(353.905625 36.60333)rotate(-90)scale(0.1 -0.1)">
     <defs>
      <path id="DejaVuSans-b7" d="M 684 2619 
L 1344 2619 
L 1344 1825 
L 684 1825 
L 684 2619 
z
" transform="scale(0.015625)"/>
     </defs>
     <use xlink:href="#DejaVuSans-b7"/>
     <use xlink:href="#DejaVuSans-b7" x="31.787109"/>
    </g>
   </g>
   <g id="text_18">
    <!-- ·· -->
    <g transform="translate(361.228125 36.60333)rotate(-90)scale(0.1 -0.1)">
     <use xlink:href="#DejaVuSans-b7"/>
     <use xlink:href="#DejaVuSans-b7" x="31.787109"/>
    </g>
   </g>
   <g id="text_19">
    <!-- ·· -->
    <g transform="translate(309.970625 36.60333)rotate(-90)scale(0.1 -0.1)">
     <use xlink:href="#DejaVuSans-b7"/>
     <use xlink:href="#DejaVuSans-b7" x="31.787109"/>
    </g>
   </g>
   <g id="text_20">
    <!-- ·· -->
    <g transform="translate(368.550625 36.60333)rotate(-90)scale(0.1 -0.1)">
     <use xlink:href="#DejaVuSans-b7"/>
     <use xlink:href="#DejaVuSans-b7" x="31.787109"/>
    </g>
   </g>
   <g id="text_21">
    <!-- ·· -->
    <g transform="translate(427.130625 36.60333)rotate(-90)scale(0.1 -0.1)">
     <use xlink:href="#DejaVuSans-b7"/>
     <use xlink:href="#DejaVuSans-b7" x="31.787109"/>
    </g>
   </g>
   <g id="text_22">
    <!-- ·· -->
    <g transform="translate(434.453125 36.60333)rotate(-90)scale(0.1 -0.1)">
     <use xlink:href="#DejaVuSans-b7"/>
     <use xlink:href="#DejaVuSans-b7" x="31.787109"/>
    </g>
   </g>
   <g id="text_23">
    <!-- Benchmark (lower is better) -->
    <g transform="translate(160.833125 20.88)scale(0.12 -0.12)">
     <defs>
      <path id="DejaVuSans-42" d="M 1259 2228 
L 1259 519 
L 2272 519 
Q 2781 519 3026 730 
Q 3272 941 3272 1375 
Q 3272 1813 3026 2020 
Q 2781 2228 2272 2228 
L 1259 2228 
z
M 1259 4147 
L 1259 2741 
L 2194 2741 
Q 2656 2741 2882 2914 
Q 3109 3088 3109 3444 
Q 3109 3797 2882 3972 
Q 2656 4147 2194 4147 
L 1259 4147 
z
M 628 4666 
L 2241 4666 
Q 2963 4666 3353 4366 
Q 3744 4066 3744 3513 
Q 3744 3084 3544 2831 
Q 3344 2578 2956 2516 
Q 3422 2416 3680 2098 
Q 3938 1781 3938 1306 
Q 3938 681 3513 340 
Q 3088 0 2303 0 
L 628 0 
L 628 4666 
z
" transform="scale(0.015625)"/>
      <path id="DejaVuSans-6b" d="M 581 4863 
L 1159 4863 
L 1159 1991 
L 2875 3500 
L 3609 3500 
L 1753 1863 
L 3688 0 
L 2938 0 
L 1159 1709 
L 1159 0 
L 581 0 
L 581 4863 
z
" transform="scale(0.015625)"/>
      <path id="DejaVuSans-20" transform="scale(0.015625)"/>
      <path id="DejaVuSans-28" d="M 1984 4856 
Q 1566 4138 1362 3434 
Q 1159 2731 1159 2009 
Q 1159 1288 1364 580 
Q 1569 -128 1984 -844 
L 1484 -844 
Q 1016 -109 783 600 
Q 550 1309 550 2009 
Q 550 2706 781 3412 
Q 1013 4119 1484 4856 
L 1984 4856 
z
" transform="scale(0.015625)"/>
      <path id="DejaVuSans-62" d="M 3116 1747 
Q 3116 2381 2855 2742 
Q 2594 3103 2138 3103 
Q 1681 3103 1420 2742 
Q 1159 2381 1159 1747 
Q 1159 1113 1420 752 
Q 1681 391 2138 391 
Q 2594 391 2855 752 
Q 3116 1113 3116 1747 
z
M 1159 2969 
Q 1341 3281 1617 3432 
Q 1894 3584 2278 3584 
Q 2916 3584 3314 3078 
Q 3713 2572 3713 1747 
Q 3713 922 3314 415 
Q 2916 -91 2278 -91 
Q 1894 -91 1617 61 
Q 1341 213 1159 525 
L 1159 0 
L 581 0 
L 581 4863 
L 1159 4863 
L 1159 2969 
z
" transform="scale(0.015625)"/>
      <path id="DejaVuSans-29" d="M 513 4856 
L 1013 4856 
Q 1481 4119 1714 3412 
Q 1947 2706 1947 2009 
Q 1947 1309 1714 600 
Q 1481 -109 1013 -844 
L 513 -844 
Q 928 -128 1133 580 
Q 1338 1288 1338 2009 
Q 1338 2731 1133 3434 
Q 928 4138 513 4856 
z
" transform="scale(0.015625)"/>
     </defs>
     <use xlink:href="#DejaVuSans-42"/>
     <use xlink:href="#DejaVuSans-65" x="68.603516"/>
     <use xlink:href="#DejaVuSans-6e" x="130.126953"/>
     <use xlink:href="#DejaVuSans-63" x="193.505859"/>
     <use xlink:href="#DejaVuSans-68" x="248.486328"/>
     <use xlink:href="#DejaVuSans-6d" x="311.865234"/>
     <use xlink:href="#DejaVuSans-61" x="409.277344"/>
     <use xlink:href="#DejaVuSans-72" x="470.556641"/>
     <use xlink:href="#DejaVuSans-6b" x="511.669922"/>
     <use xlink:href="#DejaVuSans-20" x="569.580078"/>
     <use xlink:href="#DejaVuSans-28" x="601.367188"/>
     <use xlink:href="#DejaVuSans-6c" x="640.380859"/>
     <use xlink:href="#DejaVuSans-6f" x="668.164062"/>
     <use xlink:href="#DejaVuSans-77" x="729.345703"/>
     <use xlink:href="#DejaVuSans-65" x="811.132812"/>
     <use xlink:href="#DejaVuSans-72" x="872.65625"/>
     <use xlink:href="#DejaVuSans-20" x="913.769531"/>
     <use xlink:href="#DejaVuSans-69" x="945.556641"/>
     <use xlink:href="#DejaVuSans-73" x="973.339844"/>
     <use xlink:href="#DejaVuSans-20" x="1025.439453"/>
     <use xlink:href="#DejaVuSans-62" x="1057.226562"/>
     <use xlink:href="#DejaVuSans-65" x="1120.703125"/>
     <use xlink:href="#DejaVuSans-74" x="1182.226562"/>
     <use xlink:href="#DejaVuSans-74" x="1221.435547"/>
     <use xlink:href="#DejaVuSans-65" x="1260.644531"/>
     <use xlink:href="#DejaVuSans-72" x="1322.167969"/>
     <use xlink:href="#DejaVuSans-29" x="1363.28125"/>
    </g>
   </g>
   <g id="legend_1">
    <g id="patch_35">
     <path d="M 46.94 93.5925 
L 205.27125 93.5925 
Q 207.27125 93.5925 207.27125 91.5925 
L 207.27125 33.88 
Q 207.27125 31.88 205.27125 31.88 
L 46.94 31.88 
Q 44.94 31.88 44.94 33.88 
L 44.94 91.5925 
Q 44.94 93.5925 46.94 93.5925 
z
" style="fill: #ffffff; opacity: 0.8; stroke: #cccccc; stroke-linejoin: miter"/>
    </g>
    <g id="patch_36">
     <path d="M 48.94 43.478438 
L 68.94 43.478438 
L 68.94 36.478438 
L 48.94 36.478438 
z
" style="fill: #1f77b4"/>
    </g>
    <g id="text_24">
     <!-- deserialization (simple) -->
     <g transform="translate(76.94 43.478438)scale(0.1 -0.1)">
      <defs>
       <path id="DejaVuSans-7a" d="M 353 3500 
L 3084 3500 
L 3084 2975 
L 922 459 
L 3084 459 
L 3084 0 
L 275 0 
L 275 525 
L 2438 3041 
L 353 3041 
L 353 3500 
z
" transform="scale(0.015625)"/>
      </defs>
      <use xlink:href="#DejaVuSans-64"/>
      <use xlink:href="#DejaVuSans-65" x="63.476562"/>
      <use xlink:href="#DejaVuSans-73" x="125"/>
      <use xlink:href="#DejaVuSans-65" x="177.099609"/>
      <use xlink:href="#DejaVuSans-72" x="238.623047"/>
      <use xlink:href="#DejaVuSans-69" x="279.736328"/>
      <use xlink:href="#DejaVuSans-61" x="307.519531"/>
      <use xlink:href="#DejaVuSans-6c" x="368.798828"/>
      <use xlink:href="#DejaVuSans-69" x="396.582031"/>
      <use xlink:href="#DejaVuSans-7a" x="424.365234"/>
      <use xlink:href="#DejaVuSans-61" x="476.855469"/>
      <use xlink:href="#DejaVuSans-74" x="538.134766"/>
      <use xlink:href="#DejaVuSans-69" x="577.34375"/>
      <use xlink:href="#DejaVuSans-6f" x="605.126953"/>
      <use xlink:href="#DejaVuSans-6e" x="666.308594"/>
      <use xlink:href="#DejaVuSans-20" x="729.6875"/>
      <use xlink:href="#DejaVuSans-28" x="761.474609"/>
      <use xlink:href="#DejaVuSans-73" x="800.488281"/>
      <use xlink:href="#DejaVuSans-69" x="852.587891"/>
      <use xlink:href="#DejaVuSans-6d" x="880.371094"/>
      <use xlink:href="#DejaVuSans-70" x="977.783203"/>
      <use xlink:href="#DejaVuSans-6c" x="1041.259766"/>
      <use xlink:href="#DejaVuSans-65" x="1069.042969"/>
      <use xlink:href="#DejaVuSans-29" x="1130.566406"/>
     </g>
    </g>
    <g id="patch_37">
     <path d="M 48.94 58.156563 
L 68.94 58.156563 
L 68.94 51.156563 
L 48.94 51.156563 
z
" style="fill: #ff7f0e"/>
    </g>
    <g id="text_25">
     <!-- deserialization (complex) -->
     <g transform="translate(76.94 58.156563)scale(0.1 -0.1)">
      <defs>
       <path id="DejaVuSans-78" d="M 3513 3500 
L 2247 1797 
L 3578 0 
L 2900 0 
L 1881 1375 
L 863 0 
L 184 0 
L 1544 1831 
L 300 3500 
L 978 3500 
L 1906 2253 
L 2834 3500 
L 3513 3500 
z
" transform="scale(0.015625)"/>
      </defs>
      <use xlink:href="#DejaVuSans-64"/>
      <use xlink:href="#DejaVuSans-65" x="63.476562"/>
      <use xlink:href="#DejaVuSans-73" x="125"/>
      <use xlink:href="#DejaVuSans-65" x="177.099609"/>
      <use xlink:href="#DejaVuSans-72" x="238.623047"/>
      <use xlink:href="#DejaVuSans-69" x="279.736328"/>
      <use xlink:href="#DejaVuSans-61" x="307.519531"/>
      <use xlink:href="#DejaVuSans-6c" x="368.798828"/>
      <use xlink:href="#DejaVuSans-69" x="396.582031"/>
      <use xlink:href="#DejaVuSans-7a" x="424.365234"/>
      <use xlink:href="#DejaVuSans-61" x="476.855469"/>
      <use xlink:href="#DejaVuSans-74" x="538.134766"/>
      <use xlink:href="#DejaVuSans-69" x="577.34375"/>
      <use xlink:href="#DejaVuSans-6f" x="605.126953"/>
      <use xlink:href="#DejaVuSans-6e" x="666.308594"/>
      <use xlink:href="#DejaVuSans-20" x="729.6875"/>
      <use xlink:href="#DejaVuSans-28" x="761.474609"/>
      <use xlink:href="#DejaVuSans-63" x="800.488281"/>
      <use xlink:href="#DejaVuSans-6f" x="855.46875"/>
      <use xlink:href="#DejaVuSans-6d" x="916.650391"/>
      <use xlink:href="#DejaVuSans-70" x="1014.0625"/>
      <use xlink:href="#DejaVuSans-6c" x="1077.539062"/>
      <use xlink:href="#DejaVuSans-65" x="1105.322266"/>
      <use xlink:href="#DejaVuSans-78" x="1165.095703"/>
      <use xlink:href="#DejaVuSans-29" x="1224.275391"/>
     </g>
    </g>
    <g id="patch_38">
     <path d="M 48.94 72.834688 
L 68.94 72.834688 
L 68.94 65.834688 
L 48.94 65.834688 
z
" style="fill: #2ca02c"/>
    </g>
    <g id="text_26">
     <!-- serialization (simple) -->
     <g transform="translate(76.94 72.834688)scale(0.1 -0.1)">
      <use xlink:href="#DejaVuSans-73"/>
      <use xlink:href="#DejaVuSans-65" x="52.099609"/>
      <use xlink:href="#DejaVuSans-72" x="113.623047"/>
      <use xlink:href="#DejaVuSans-69" x="154.736328"/>
      <use xlink:href="#DejaVuSans-61" x="182.519531"/>
      <use xlink:href="#DejaVuSans-6c" x="243.798828"/>
      <use xlink:href="#DejaVuSans-69" x="271.582031"/>
      <use xlink:href="#DejaVuSans-7a" x="299.365234"/>
      <use xlink:href="#DejaVuSans-61" x="351.855469"/>
      <use xlink:href="#DejaVuSans-74" x="413.134766"/>
      <use xlink:href="#DejaVuSans-69" x="452.34375"/>
      <use xlink:href="#DejaVuSans-6f" x="480.126953"/>
      <use xlink:href="#DejaVuSans-6e" x="541.308594"/>
      <use xlink:href="#DejaVuSans-20" x="604.6875"/>
      <use xlink:href="#DejaVuSans-28" x="636.474609"/>
      <use xlink:href="#DejaVuSans-73" x="675.488281"/>
      <use xlink:href="#DejaVuSans-69" x="727.587891"/>
      <use xlink:href="#DejaVuSans-6d" x="755.371094"/>
      <use xlink:href="#DejaVuSans-70" x="852.783203"/>
      <use xlink:href="#DejaVuSans-6c" x="916.259766"/>
      <use xlink:href="#DejaVuSans-65" x="944.042969"/>
      <use xlink:href="#DejaVuSans-29" x="1005.566406"/>
     </g>
    </g>
    <g id="patch_39">
     <path d="M 48.94 87.512813 
L 68.94 87.512813 
L 68.94 80.512813 
L 48.94 80.512813 
z
" style="fill: #d62728"/>
    </g>
    <g id="text_27">
     <!-- serialization (complex) -->
     <g transform="translate(76.94 87.512813)scale(0.1 -0.1)">
      <use xlink:href="#DejaVuSans-73"/>
      <use xlink:href="#DejaVuSans-65" x="52.099609"/>
      <use xlink:href="#DejaVuSans-72" x="113.623047"/>
      <use xlink:href="#DejaVuSans-69" x="154.736328"/>
      <use xlink:href="#DejaVuSans-61" x="182.519531"/>
      <use xlink:href="#DejaVuSans-6c" x="243.798828"/>
      <use xlink:href="#DejaVuSans-69" x="271.582031"/>
      <use xlink:href="#DejaVuSans-7a" x="299.365234"/>
      <use xlink:href="#DejaVuSans-61" x="351.855469"/>
      <use xlink:href="#DejaVuSans-74" x="413.134766"/>
      <use xlink:href="#DejaVuSans-69" x="452.34375"/>
      <use xlink:href="#DejaVuSans-6f" x="480.126953"/>
      <use xlink:href="#DejaVuSans-6e" x="541.308594"/>
      <use xlink:href="#DejaVuSans-20" x="604.6875"/>
      <use xlink:href="#DejaVuSans-28" x="636.474609"/>
      <use xlink:href="#DejaVuSans-63" x="675.488281"/>
      <use xlink:href="#DejaVuSans-6f" x="730.46875"/>
      <use xlink:href="#DejaVuSans-6d" x="791.650391"/>
      <use xlink:href="#DejaVuSans-70" x="889.0625"/>
      <use xlink:href="#DejaVuSans-6c" x="952.539062"/>
      <use xlink:href="#DejaVuSans-65" x="980.322266"/>
      <use xlink:href="#DejaVuSans-78" x="1040.095703"/>
      <use xlink:href="#DejaVuSans-29" x="1099.275391"/>
     </g>
    </g>
   </g>
  </g>
 </g>
 <defs>
  <clipPath id="p7f0277e58a">
   <rect x="39.94" y="26.88" width="410.06" height="246.189935"/>
  </clipPath>
 </defs>
</svg>
